<svg width="163" height="56" viewBox="0 0 163 56" fill="none" xmlns="http://www.w3.org/2000/svg">
<path d="M20.5469 38.9336V42H6.32812V38.9336H20.5469ZM7.07031 13.5625V42H3.30078V13.5625H7.07031ZM29.9805 13.5625V42H26.2695V13.5625H29.9805ZM39.1211 13.5625V16.6484H17.1484V13.5625H39.1211ZM52.832 37.6836L61.2109 13.5625H65.293L54.7656 42H51.8555L52.832 37.6836ZM45 13.5625L53.3008 37.6836L54.3359 42H51.4258L40.918 13.5625H45Z" fill="white"/>
<path d="M82.7578 47.8125C82.7578 52.1615 81.612 54.3359 79.3203 54.3359C79.0859 54.3359 78.7865 54.3229 78.4219 54.2969C78.0833 54.2969 77.5625 54.2448 76.8594 54.1406C76.1823 54.0625 75.4922 53.9062 74.7891 53.6719C73.0964 53.099 72.0156 52.2656 71.5469 51.1719C71.5469 51.0938 71.612 50.9115 71.7422 50.625C71.9766 50.1042 72.0938 49.8047 72.0938 49.7266C72.9531 50.3776 73.8776 50.9896 74.8672 51.5625C75.8568 52.1354 76.9115 52.4219 78.0312 52.4219C78.7865 52.4219 79.3854 51.875 79.8281 50.7812C80.2448 49.8438 80.4531 48.9062 80.4531 47.9688C80.4531 45.4427 80.2708 42.1615 79.9062 38.125C79.3854 32.0573 79.125 28.2031 79.125 26.5625C79.125 24.8958 79.151 23.5417 79.2031 22.5C79.125 21.875 79.4115 21.4062 80.0625 21.0938C80.5573 20.8594 81.1042 20.7422 81.7031 20.7422C81.4688 22.3568 81.3516 23.6328 81.3516 24.5703C81.3516 25.5078 81.3516 26.4844 81.3516 27.5C81.3776 28.4896 81.4557 29.9479 81.5859 31.875C81.7422 33.8021 81.9115 35.7292 82.0938 37.6562C82.5365 41.849 82.7578 45.2344 82.7578 47.8125ZM80.2969 12.3828C80.7135 12.6693 80.9219 13.125 80.9219 13.75C80.9219 14.375 80.6875 14.7526 80.2188 14.8828C80.1927 14.8828 80.0885 14.8828 79.9062 14.8828C79.75 14.8828 79.4766 14.7135 79.0859 14.375C79.0859 13.5417 79.2812 12.9427 79.6719 12.5781C79.8281 12.4479 80.0365 12.3828 80.2969 12.3828ZM89.9406 32.5781C89.9406 29.5052 91.2688 27.0312 93.925 25.1562C96.0344 23.6719 98.5734 22.7734 101.542 22.4609C101.698 22.4609 102.063 22.4609 102.636 22.4609C103.209 22.4609 103.977 22.6302 104.941 22.9688C107.076 23.6979 108.534 24.987 109.316 26.8359C109.628 27.5651 109.784 28.1901 109.784 28.7109C109.784 29.2057 109.771 29.5573 109.745 29.7656C109.745 33.0208 108.508 35.5859 106.034 37.4609C103.743 39.1797 100.878 40.0391 97.4406 40.0391C94.9667 40.0391 93.0917 39.4661 91.8156 38.3203C90.5656 37.1745 89.9406 35.2604 89.9406 32.5781ZM92.6359 33.5156C92.6359 35.1302 93.0656 36.224 93.925 36.7969C94.576 37.2135 95.6698 37.4219 97.2063 37.4219C98.7427 37.4219 100.097 37.3047 101.269 37.0703C102.441 36.8359 103.482 36.4323 104.394 35.8594C106.347 34.6094 107.323 32.6693 107.323 30.0391C107.323 28.4766 106.907 27.2005 106.073 26.2109C105.162 25.1432 103.964 24.6094 102.48 24.6094C101.464 24.7917 100.435 24.987 99.3938 25.1953C98.3781 25.4036 97.4146 25.8073 96.5031 26.4062C94.524 27.6823 93.2349 30.0521 92.6359 33.5156ZM116.498 17.3438L116.381 12.3047C116.381 11.888 116.524 11.5625 116.811 11.3281C117.097 11.0938 117.449 10.9766 117.866 10.9766C118.282 10.9766 118.66 11.0938 118.998 11.3281C119.337 11.5365 119.467 11.8359 119.389 12.2266L119.662 29.1016C121.303 26.9141 123.517 25.0781 126.303 23.5938C128.621 22.3438 130.652 21.7188 132.397 21.7188C133.933 21.7188 135.118 22.2135 135.952 23.2031C136.577 23.9844 136.889 25.026 136.889 26.3281C136.889 27.6042 136.642 28.724 136.147 29.6875C135.678 30.625 135.053 31.5365 134.272 32.4219C133.491 33.2812 132.592 34.0885 131.577 34.8438C130.561 35.599 129.532 36.276 128.491 36.875C126.511 38.0208 124.558 38.9714 122.631 39.7266C122.475 39.6745 122.215 39.6615 121.85 39.6875C121.485 39.7135 121.043 39.7266 120.522 39.7266C119.116 39.7266 117.879 39.5573 116.811 39.2188C116.551 36.7448 116.42 32.9818 116.42 27.9297L116.498 17.3438ZM119.78 36.5234C119.78 36.8099 120.04 36.9531 120.561 36.9531C121.108 36.9531 121.772 36.849 122.553 36.6406C123.334 36.4323 124.272 36.0807 125.366 35.5859C126.485 35.0651 127.605 34.401 128.725 33.5938C131.329 31.7448 133.295 29.5703 134.623 27.0703C134.285 25.5859 133.269 24.8438 131.577 24.8438C130.04 24.8438 128.308 25.4167 126.381 26.5625C123.647 28.2031 121.694 30.2344 120.522 32.6562C120.027 33.6198 119.78 34.5964 119.78 35.5859C119.78 35.8464 119.78 36.0547 119.78 36.2109C119.78 36.3672 119.78 36.4714 119.78 36.5234ZM156.884 29.9219C159.749 29.9219 161.181 30.651 161.181 32.1094C161.181 33.2031 160.387 34.4792 158.798 35.9375C156.429 38.099 153.239 39.8307 149.228 41.1328C149.046 41.1328 148.838 40.9505 148.603 40.5859C148.395 40.2214 148.226 39.9479 148.095 39.7656C147.991 39.5573 147.913 39.4271 147.861 39.375C150.856 38.3854 153.317 37.1875 155.244 35.7812C156.546 34.8438 157.197 34.0755 157.197 33.4766C157.197 32.8776 156.429 32.5781 154.892 32.5781C153.356 32.5781 151.103 32.9427 148.134 33.6719C146.78 33.6198 145.608 33.138 144.619 32.2266C143.759 31.4193 143.33 30.612 143.33 29.8047C143.33 28.9714 143.564 28.2161 144.033 27.5391C144.502 26.8359 145.127 26.1849 145.908 25.5859C146.689 24.987 147.601 24.4401 148.642 23.9453C151.194 22.7214 153.838 22.1094 156.572 22.1094C157.379 22.1094 158.16 22.1875 158.916 22.3438C159.541 22.3438 159.905 22.6172 160.009 23.1641C160.114 23.7109 160.166 24.6094 160.166 25.8594C158.629 25.1562 156.897 24.8047 154.97 24.8047C152.574 24.8047 150.595 25.2865 149.033 26.25C147.418 27.1875 146.585 28.4115 146.533 29.9219C146.533 30.651 147.067 31.0156 148.134 31.0156L150.986 30.7031C153.434 30.1823 155.4 29.9219 156.884 29.9219Z" fill="#5AA2AE"/>
</svg>
